# xmcd CD database file
#
# Track frame offsets:
#	150
#	20056
#	38813
#	69718
#
# Disc length: 4440 seconds
#
# Revision: 0
# Processed by: cddbd v1.5PL3 Copyright (c) Steve Scherf et al.
# Submitted via: CDex 1.51
#
DISCID=32115604
DTITLE=林明日香 - もう一度あなたに会いたい
DYEAR=2003
DGENRE=Japanese Pop
TTITLE0=もう一度あなたに会いたい
TTITLE1=言葉一つ
TTITLE2=もう一度あなたに会いたい(Ins)
TTITLE3=Data
EXTD=YEAR: 2003
EXTT0=
EXTT1=
EXTT2=
EXTT3=
PLAYORDER=
